<?xml version="1.0" encoding="utf-8"?>
<!-- Generator: Adobe Illustrator 25.1.0, SVG Export Plug-In . SVG Version: 6.00 Build 0)  -->
<svg version="1.1" xmlns="http://www.w3.org/2000/svg" xmlns:xlink="http://www.w3.org/1999/xlink" x="0px" y="0px"
	 viewBox="0 0 95.1 78.4" style="enable-background:new 0 0 95.1 78.4;" xml:space="preserve">
<g id="Layer_2">
</g>
<g id="Layer_1">
	<g>
		<path d="M71.3,17.5c-1.2-1.8-3.6-2.2-5.4-1s-2.2,3.6-1,5.4c3.5,5.1,5.4,11,5.4,17.2s-1.9,12.2-5.4,17.2c-1.2,1.8-0.8,4.2,1,5.4
			c0.7,0.5,1.4,0.7,2.2,0.7c1.2,0,2.4-0.6,3.2-1.7c4.4-6.4,6.8-13.9,6.8-21.7C78.1,31.4,75.7,23.9,71.3,17.5z"/>
		<path d="M82.6,4.1c-1.4-1.7-3.8-1.9-5.5-0.5s-1.9,3.8-0.5,5.5c6.9,8.3,10.7,19.1,10.7,30.1S83.5,61,76.6,69.4
			c-1.4,1.7-1.1,4.1,0.6,5.5c0.7,0.6,1.6,0.9,2.5,0.9c1.1,0,2.2-0.5,3-1.4c8-9.8,12.4-22.3,12.4-35.1C95.1,26.4,90.7,13.9,82.6,4.1z
			"/>
		<path d="M50.5,0.9c-2.9-1.5-6.4-1.2-9.1,0.8l-22.9,17c-0.2,0.2-0.6,0.3-0.9,0.3H8.7C3.9,19,0,22.9,0,27.7v23
			c0,4.8,3.9,8.7,8.7,8.7h8.9c0.3,0,0.6,0.1,0.9,0.3l22.9,17c1.5,1.1,3.3,1.7,5.2,1.7c1.3,0,2.7-0.3,3.9-0.9
			c2.9-1.5,4.8-4.5,4.8-7.8v-61C55.2,5.4,53.4,2.4,50.5,0.9z M47.5,69.7c0,0.5-0.3,0.7-0.5,0.8c-0.2,0.1-0.6,0.2-0.9-0.1l-22.9-17
			l0,0c-1.6-1.2-3.5-1.8-5.5-1.8H8.8c-0.5,0-0.9-0.4-0.9-0.9v-23c0-0.5,0.4-0.9,0.9-0.9h8.9c2,0,3.9-0.6,5.5-1.8L46.1,8
			c0.4-0.3,0.7-0.2,0.9-0.1s0.5,0.3,0.5,0.8V69.7z"/>
	</g>
</g>
</svg>
