<?xml version="1.0" encoding="utf-8"?>
<!-- Generator: Adobe Illustrator 25.1.0, SVG Export Plug-In . SVG Version: 6.00 Build 0)  -->
<svg version="1.1" id="Layer_1" xmlns="http://www.w3.org/2000/svg" xmlns:xlink="http://www.w3.org/1999/xlink" x="0px" y="0px"
	 viewBox="0 0 32 24" style="enable-background:new 0 0 32 24;" xml:space="preserve">
<g>
	<path d="M29.5,24H17.4c-0.6,0-1-0.4-1-1s0.4-1,1-1h12.1c0.3,0,0.5-0.2,0.5-0.5v-19C30,2.2,29.8,2,29.5,2h-27C2.2,2,2,2.2,2,2.5v4
		c0,0.6-0.4,1-1,1s-1-0.4-1-1v-4C0,1.1,1.1,0,2.5,0h27C30.9,0,32,1.1,32,2.5v19C32,22.9,30.9,24,29.5,24z"/>
	<circle cx="1" cy="23" r="1"/>
	<path d="M5,24c-0.6,0-1-0.4-1-1c0-1.7-1.3-3-3-3c-0.6,0-1-0.4-1-1s0.4-1,1-1c2.8,0,5,2.2,5,5C6,23.6,5.6,24,5,24z"/>
	<path d="M9,24c-0.6,0-1-0.4-1-1c0-3.9-3.1-7-7-7c-0.6,0-1-0.4-1-1s0.4-1,1-1c5,0,9,4,9,9C10,23.6,9.6,24,9,24z"/>
	<path d="M13,24c-0.6,0-1-0.4-1-1c0-6.1-4.9-11-11-11c-0.6,0-1-0.4-1-1s0.4-1,1-1c7.2,0,13,5.8,13,13C14,23.6,13.6,24,13,24z"/>
</g>
</svg>
